<svg width="412" height="410" viewBox="0 0 412 410" fill="none" xmlns="http://www.w3.org/2000/svg">
<path d="M0 268.5V161.5L21 140.5H131V32L164 0L261.5 2.5L272 12L267.5 137.5L275 144L399 137.5L412 149.5V245.5L386.5 271L281.5 268.5L275 277V380L247.5 409.5H139.5L126 395V292L116 282.5H13.5L0 268.5Z" fill="#8E0B27"/>
<path d="M170 385.5L157 376.5L167.5 249.5L163 238L36.5 249.5L23 238V153L36.5 144L163 153L167.5 144L155.5 16.5L167.5 7H255L268.5 16.5L255 144L263 153L392.5 144L404 153V238L385.5 252.5L274.5 242.5L263 252.5L269.5 376.5L255 385.5H170Z" fill="#262626"/>
<circle cx="209" cy="200" r="35" fill="#262626" stroke="#AE9292" stroke-width="4"/>
</svg>
