<svg width="103" height="92" viewBox="0 0 103 92" fill="none" xmlns="http://www.w3.org/2000/svg">
<g clip-path="url(#clip0_65_882)">
<path d="M38.2801 25.8175C35.981 29.3442 33.3562 34.5767 30.4057 41.515C29.5627 39.79 28.8538 38.4004 28.279 37.3463C27.7042 36.2921 26.9283 35.075 25.9512 33.695C24.9741 32.315 23.9969 31.2321 23.0198 30.4463C22.0427 29.6604 20.8357 28.9896 19.3987 28.4338C17.9618 27.8779 16.4003 27.6 14.7143 27.6H1.83929C1.30283 27.6 0.862165 27.4275 0.517299 27.0825C0.172433 26.7375 0 26.2967 0 25.76V14.72C0 14.1833 0.172433 13.7425 0.517299 13.3975C0.862165 13.0525 1.30283 12.88 1.83929 12.88H14.7143C24.2939 12.88 32.1492 17.1925 38.2801 25.8175ZM103 71.76C103 72.2967 102.828 72.7375 102.483 73.0825L84.0898 91.4825C83.745 91.8275 83.3043 92 82.7679 92C82.2697 92 81.8386 91.8179 81.4746 91.4538C81.1106 91.0896 80.9286 90.6583 80.9286 90.16V79.12C79.7024 79.12 78.0738 79.1296 76.043 79.1488C74.0121 79.1679 72.4602 79.1871 71.3873 79.2063C70.3144 79.2254 68.9157 79.2063 67.1914 79.1488C65.4671 79.0913 64.1068 78.9954 63.1105 78.8613C62.1142 78.7271 60.888 78.5258 59.4319 78.2575C57.9758 77.9892 56.7688 77.6346 55.8108 77.1937C54.8529 76.7529 53.7416 76.2067 52.4771 75.555C51.2126 74.9033 50.0822 74.1367 49.0859 73.255C48.0897 72.3733 47.0359 71.3479 45.9247 70.1787C44.8134 69.0096 43.7405 67.6775 42.7059 66.1825C44.9667 62.6175 47.5724 57.385 50.5229 50.485C51.3659 52.21 52.0748 53.5996 52.6496 54.6538C53.2243 55.7079 54.0003 56.925 54.9774 58.305C55.9545 59.685 56.9316 60.7679 57.9088 61.5538C58.8859 62.3396 60.0929 63.0104 61.5299 63.5662C62.9668 64.1221 64.5283 64.4 66.2143 64.4H80.9286V53.36C80.9286 52.8233 81.101 52.3825 81.4459 52.0375C81.7907 51.6925 82.2314 51.52 82.7679 51.52C83.2277 51.52 83.6875 51.7117 84.1473 52.095L102.483 70.4375C102.828 70.7825 103 71.2233 103 71.76ZM103 20.24C103 20.7767 102.828 21.2175 102.483 21.5625L84.0898 39.9625C83.745 40.3075 83.3043 40.48 82.7679 40.48C82.2697 40.48 81.8386 40.2979 81.4746 39.9338C81.1106 39.5696 80.9286 39.1383 80.9286 38.64V27.6H66.2143C64.375 27.6 62.7081 27.8875 61.2137 28.4625C59.7193 29.0375 58.3973 29.9 57.2478 31.05C56.0982 32.2 55.1211 33.3787 54.3164 34.5863C53.5117 35.7938 52.6496 37.2792 51.7299 39.0425C50.5037 41.4192 49.0093 44.6967 47.2467 48.875C46.1354 51.405 45.187 53.5325 44.4015 55.2575C43.616 56.9825 42.5814 58.995 41.2977 61.295C40.014 63.595 38.7879 65.5117 37.6191 67.045C36.4504 68.5783 35.0326 70.1692 33.3658 71.8175C31.6989 73.4658 29.9746 74.7787 28.1928 75.7562C26.411 76.7337 24.3705 77.5387 22.0714 78.1712C19.7723 78.8037 17.3199 79.12 14.7143 79.12H1.83929C1.30283 79.12 0.862165 78.9475 0.517299 78.6025C0.172433 78.2575 0 77.8167 0 77.28V66.24C0 65.7033 0.172433 65.2625 0.517299 64.9175C0.862165 64.5725 1.30283 64.4 1.83929 64.4H14.7143C16.5536 64.4 18.2204 64.1125 19.7148 63.5375C21.2093 62.9625 22.5312 62.1 23.6808 60.95C24.8304 59.8 25.8075 58.6213 26.6122 57.4137C27.4169 56.2062 28.279 54.7208 29.1987 52.9575C30.4249 50.5808 31.9193 47.3033 33.6819 43.125C34.7932 40.595 35.7415 38.4675 36.5271 36.7425C37.3126 35.0175 38.3472 33.005 39.6309 30.705C40.9145 28.405 42.1407 26.4883 43.3094 24.955C44.4781 23.4217 45.8959 21.8308 47.5628 20.1825C49.2296 18.5342 50.954 17.2213 52.7358 16.2437C54.5176 15.2663 56.558 14.4613 58.8571 13.8288C61.1562 13.1962 63.6086 12.88 66.2143 12.88H80.9286V1.84C80.9286 1.30333 81.101 0.8625 81.4459 0.5175C81.7907 0.1725 82.2314 0 82.7679 0C83.2277 0 83.6875 0.191667 84.1473 0.575L102.483 18.9175C102.828 19.2625 103 19.7033 103 20.24Z" fill="#F8F8F8"/>
</g>
<defs>
<clipPath id="clip0_65_882">
<rect width="103" height="92" fill="white"/>
</clipPath>
</defs>
</svg>
